<svg xmlns="http://www.w3.org/2000/svg" xmlns:xlink="http://www.w3.org/1999/xlink" contentStyleType="text/css" data-diagram-type="CLASS" height="717px" preserveAspectRatio="none" style="width:1228px;height:717px;background:#FFFFFF;" version="1.1" viewBox="0 0 1228 717" width="1228px" zoomAndPan="magnify"><defs/><g><!--class equipes--><g class="entity" data-entity="equipes" data-source-line="3" data-uid="ent0002" id="entity_equipes"><rect fill="#F1F1F1" height="96.8906" rx="2.5" ry="2.5" style="stroke:#181818;stroke-width:0.5;" width="188.9346" x="394.18" y="31.44"/><ellipse cx="456.869" cy="47.44" fill="#ADD1B2" rx="11" ry="11" style="stroke:#181818;stroke-width:1;"/><path d="M460.9783,53.44 L453.2596,53.44 L453.2596,41.0494 L460.9783,41.0494 L460.9783,43.2056 L455.7127,43.2056 L455.7127,45.8775 L460.4783,45.8775 L460.4783,48.0337 L455.7127,48.0337 L455.7127,51.2837 L460.9783,51.2837 L460.9783,53.44 Z " fill="#000000"/><text fill="#000000" font-family="sans-serif" font-size="14" lengthAdjust="spacing" textLength="55.0566" x="477.369" y="52.2867">equipes</text><line style="stroke:#181818;stroke-width:0.5;" x1="395.18" x2="582.1146" y1="63.44" y2="63.44"/><ellipse cx="405.18" cy="77.0884" fill="none" rx="3" ry="3" style="stroke:#038048;stroke-width:1;"/><text fill="#000000" font-family="sans-serif" font-size="14" lengthAdjust="spacing" textLength="88.751" x="414.18" y="80.4351">id : INT &#171;PK&#187;</text><line style="stroke:#181818;stroke-width:1;" x1="395.18" x2="582.1146" y1="87.7369" y2="87.7369"/><text fill="#000000" font-family="sans-serif" font-size="14" lengthAdjust="spacing" textLength="150.8281" x="400.18" y="104.732">nom : VARCHAR(100)</text><text fill="#000000" font-family="sans-serif" font-size="14" lengthAdjust="spacing" textLength="176.9346" x="400.18" y="121.0289">categorie : VARCHAR(50)</text></g><!--class joueurs--><g class="entity" data-entity="joueurs" data-source-line="10" data-uid="ent0003" id="entity_joueurs"><rect fill="#F1F1F1" height="186.375" rx="2.5" ry="2.5" style="stroke:#181818;stroke-width:0.5;" width="186.084" x="822.61" y="281.23"/><ellipse cx="885.4699" cy="297.23" fill="#ADD1B2" rx="11" ry="11" style="stroke:#181818;stroke-width:1;"/><path d="M889.5792,303.23 L881.8605,303.23 L881.8605,290.8394 L889.5792,290.8394 L889.5792,292.9956 L884.3136,292.9956 L884.3136,295.6675 L889.0792,295.6675 L889.0792,297.8237 L884.3136,297.8237 L884.3136,301.0737 L889.5792,301.0737 L889.5792,303.23 Z " fill="#000000"/><text fill="#000000" font-family="sans-serif" font-size="14" lengthAdjust="spacing" textLength="51.8643" x="905.9699" y="302.0767">joueurs</text><line style="stroke:#181818;stroke-width:0.5;" x1="823.61" x2="1007.694" y1="313.23" y2="313.23"/><ellipse cx="833.61" cy="326.8784" fill="none" rx="3" ry="3" style="stroke:#038048;stroke-width:1;"/><text fill="#000000" font-family="sans-serif" font-size="14" lengthAdjust="spacing" textLength="88.751" x="842.61" y="330.2251">id : INT &#171;PK&#187;</text><line style="stroke:#181818;stroke-width:1;" x1="823.61" x2="1007.694" y1="337.5269" y2="337.5269"/><text fill="#000000" font-family="sans-serif" font-size="14" lengthAdjust="spacing" textLength="150.8281" x="828.61" y="354.522">nom : VARCHAR(100)</text><text fill="#000000" font-family="sans-serif" font-size="14" lengthAdjust="spacing" textLength="174.084" x="828.61" y="370.8189">prenom : VARCHAR(100)</text><text fill="#000000" font-family="sans-serif" font-size="14" lengthAdjust="spacing" textLength="159.6328" x="828.61" y="387.1157">date_naissance : DATE</text><text fill="#000000" font-family="sans-serif" font-size="14" lengthAdjust="spacing" textLength="149.6934" x="828.61" y="403.4126">poste : VARCHAR(50)</text><text fill="#000000" font-family="sans-serif" font-size="14" lengthAdjust="spacing" textLength="91.0889" x="828.61" y="419.7095">numero : INT</text><text fill="#000000" font-family="sans-serif" font-size="14" lengthAdjust="spacing" textLength="160.1318" x="828.61" y="436.0064">photo : VARCHAR(255)</text><line style="stroke:#181818;stroke-width:1;" x1="823.61" x2="1007.694" y1="443.3081" y2="443.3081"/><text fill="#000000" font-family="sans-serif" font-size="14" lengthAdjust="spacing" textLength="143.124" x="828.61" y="460.3032">equipe_id : INT &#171;FK&#187;</text></g><!--class tournaments--><g class="entity" data-entity="tournaments" data-source-line="23" data-uid="ent0004" id="entity_tournaments"><rect fill="#F1F1F1" height="129.4844" rx="2.5" ry="2.5" style="stroke:#181818;stroke-width:0.5;" width="187.3008" x="7" y="15.15"/><ellipse cx="51.3789" cy="31.15" fill="#ADD1B2" rx="11" ry="11" style="stroke:#181818;stroke-width:1;"/><path d="M55.4883,37.15 L47.7695,37.15 L47.7695,24.7594 L55.4883,24.7594 L55.4883,26.9156 L50.2227,26.9156 L50.2227,29.5875 L54.9883,29.5875 L54.9883,31.7437 L50.2227,31.7437 L50.2227,34.9937 L55.4883,34.9937 L55.4883,37.15 Z " fill="#000000"/><text fill="#000000" font-family="sans-serif" font-size="14" lengthAdjust="spacing" textLength="90.043" x="71.8789" y="35.9967">tournaments</text><line style="stroke:#181818;stroke-width:0.5;" x1="8" x2="193.3008" y1="47.15" y2="47.15"/><ellipse cx="18" cy="60.7984" fill="none" rx="3" ry="3" style="stroke:#038048;stroke-width:1;"/><text fill="#000000" font-family="sans-serif" font-size="14" lengthAdjust="spacing" textLength="88.751" x="27" y="64.1451">id : INT &#171;PK&#187;</text><line style="stroke:#181818;stroke-width:1;" x1="8" x2="193.3008" y1="71.4469" y2="71.4469"/><text fill="#000000" font-family="sans-serif" font-size="14" lengthAdjust="spacing" textLength="159.4551" x="13" y="88.442">name : VARCHAR(100)</text><text fill="#000000" font-family="sans-serif" font-size="14" lengthAdjust="spacing" textLength="175.3008" x="13" y="104.7389">location : VARCHAR(100)</text><text fill="#000000" font-family="sans-serif" font-size="14" lengthAdjust="spacing" textLength="122.5479" x="13" y="121.0357">start_date : DATE</text><text fill="#000000" font-family="sans-serif" font-size="14" lengthAdjust="spacing" textLength="116.3135" x="13" y="137.3326">end_date : DATE</text></g><!--class matches--><g class="entity" data-entity="matches" data-source-line="32" data-uid="ent0005" id="entity_matches"><rect fill="#F1F1F1" height="259.2656" rx="2.5" ry="2.5" style="stroke:#181818;stroke-width:0.5;" width="226.0127" x="98.64" y="244.78"/><ellipse cx="177.3046" cy="260.78" fill="#ADD1B2" rx="11" ry="11" style="stroke:#181818;stroke-width:1;"/><path d="M181.4139,266.78 L173.6952,266.78 L173.6952,254.3894 L181.4139,254.3894 L181.4139,256.5456 L176.1483,256.5456 L176.1483,259.2175 L180.9139,259.2175 L180.9139,261.3738 L176.1483,261.3738 L176.1483,264.6238 L181.4139,264.6238 L181.4139,266.78 Z " fill="#000000"/><text fill="#000000" font-family="sans-serif" font-size="14" lengthAdjust="spacing" textLength="60.1836" x="197.8046" y="265.6267">matches</text><line style="stroke:#181818;stroke-width:0.5;" x1="99.64" x2="323.6527" y1="276.78" y2="276.78"/><ellipse cx="109.64" cy="290.4284" fill="none" rx="3" ry="3" style="stroke:#038048;stroke-width:1;"/><text fill="#000000" font-family="sans-serif" font-size="14" lengthAdjust="spacing" textLength="88.751" x="118.64" y="293.7751">id : INT &#171;PK&#187;</text><line style="stroke:#181818;stroke-width:1;" x1="99.64" x2="323.6527" y1="301.0769" y2="301.0769"/><text fill="#000000" font-family="sans-serif" font-size="14" lengthAdjust="spacing" textLength="116.5459" x="104.64" y="318.072">date : DATETIME</text><text fill="#000000" font-family="sans-serif" font-size="14" lengthAdjust="spacing" textLength="175.3008" x="104.64" y="334.3689">location : VARCHAR(100)</text><text fill="#000000" font-family="sans-serif" font-size="14" lengthAdjust="spacing" textLength="186.5049" x="104.64" y="350.6657">opponent : VARCHAR(100)</text><line style="stroke:#181818;stroke-width:1;" x1="99.64" x2="323.6527" y1="357.9675" y2="357.9675"/><text fill="#000000" font-family="sans-serif" font-size="14" lengthAdjust="spacing" textLength="209.1934" x="104.64" y="374.9626">equipe_domicile_id : INT &#171;FK&#187;</text><text fill="#000000" font-family="sans-serif" font-size="14" lengthAdjust="spacing" textLength="214.0127" x="104.64" y="391.2595">equipe_exterieur_id : INT &#171;FK&#187;</text><line style="stroke:#181818;stroke-width:1;" x1="99.64" x2="323.6527" y1="398.5613" y2="398.5613"/><text fill="#000000" font-family="sans-serif" font-size="14" lengthAdjust="spacing" textLength="140.7656" x="104.64" y="415.5564">score_domicile : INT</text><text fill="#000000" font-family="sans-serif" font-size="14" lengthAdjust="spacing" textLength="145.585" x="104.64" y="431.8532">score_exterieur : INT</text><line style="stroke:#181818;stroke-width:1;" x1="99.64" x2="323.6527" y1="439.155" y2="439.155"/><text fill="#000000" font-family="sans-serif" font-size="14" lengthAdjust="spacing" textLength="139.8291" x="104.64" y="456.1501">is_home : BOOLEAN</text><text fill="#000000" font-family="sans-serif" font-size="14" lengthAdjust="spacing" textLength="182.8887" x="104.64" y="472.447">is_tournament : BOOLEAN</text><line style="stroke:#181818;stroke-width:1;" x1="99.64" x2="323.6527" y1="479.7488" y2="479.7488"/><text fill="#000000" font-family="sans-serif" font-size="14" lengthAdjust="spacing" textLength="178.1104" x="104.64" y="496.7439">tournament_id : INT &#171;FK&#187;</text></g><!--class evenements--><g class="entity" data-entity="evenements" data-source-line="51" data-uid="ent0006" id="entity_evenements"><rect fill="#F1F1F1" height="145.7813" rx="2.5" ry="2.5" style="stroke:#181818;stroke-width:0.5;" width="338.6416" x="618.33" y="7"/><ellipse cx="739.9482" cy="23" fill="#ADD1B2" rx="11" ry="11" style="stroke:#181818;stroke-width:1;"/><path d="M744.0575,29 L736.3388,29 L736.3388,16.6094 L744.0575,16.6094 L744.0575,18.7656 L738.7919,18.7656 L738.7919,21.4375 L743.5575,21.4375 L743.5575,23.5938 L738.7919,23.5938 L738.7919,26.8438 L744.0575,26.8438 L744.0575,29 Z " fill="#000000"/><text fill="#000000" font-family="sans-serif" font-size="14" lengthAdjust="spacing" textLength="86.9053" x="760.4482" y="27.8467">evenements</text><line style="stroke:#181818;stroke-width:0.5;" x1="619.33" x2="955.9716" y1="39" y2="39"/><ellipse cx="629.33" cy="52.6484" fill="none" rx="3" ry="3" style="stroke:#038048;stroke-width:1;"/><text fill="#000000" font-family="sans-serif" font-size="14" lengthAdjust="spacing" textLength="88.751" x="638.33" y="55.9951">id : INT &#171;PK&#187;</text><line style="stroke:#181818;stroke-width:1;" x1="619.33" x2="955.9716" y1="63.2969" y2="63.2969"/><text fill="#000000" font-family="sans-serif" font-size="14" lengthAdjust="spacing" textLength="148.9893" x="624.33" y="80.292">titre : VARCHAR(150)</text><text fill="#000000" font-family="sans-serif" font-size="14" lengthAdjust="spacing" textLength="126.998" x="624.33" y="96.5889">description : TEXT</text><text fill="#000000" font-family="sans-serif" font-size="14" lengthAdjust="spacing" textLength="116.5459" x="624.33" y="112.8857">date : DATETIME</text><text fill="#000000" font-family="sans-serif" font-size="14" lengthAdjust="spacing" textLength="145.0176" x="624.33" y="129.1826">lieu : VARCHAR(150)</text><text fill="#000000" font-family="sans-serif" font-size="14" lengthAdjust="spacing" textLength="326.6416" x="624.33" y="145.4795">type : ENUM('match','tournoi','r&#233;union','autre')</text></g><!--class galeries--><g class="entity" data-entity="galeries" data-source-line="61" data-uid="ent0007" id="entity_galeries"><rect fill="#F1F1F1" height="137.4844" rx="2.5" ry="2.5" style="stroke:#181818;stroke-width:0.5;" width="427.0781" x="360.11" y="305.67"/><ellipse cx="541.6383" cy="321.67" fill="#ADD1B2" rx="11" ry="11" style="stroke:#181818;stroke-width:1;"/><path d="M545.7477,327.67 L538.0289,327.67 L538.0289,315.2794 L545.7477,315.2794 L545.7477,317.4356 L540.4821,317.4356 L540.4821,320.1075 L545.2477,320.1075 L545.2477,322.2637 L540.4821,322.2637 L540.4821,325.5137 L545.7477,325.5137 L545.7477,327.67 Z " fill="#000000"/><text fill="#000000" font-family="sans-serif" font-size="14" lengthAdjust="spacing" textLength="55.5215" x="562.1383" y="326.5167">galeries</text><line style="stroke:#181818;stroke-width:0.5;" x1="361.11" x2="786.1881" y1="337.67" y2="337.67"/><ellipse cx="371.11" cy="351.3184" fill="none" rx="3" ry="3" style="stroke:#038048;stroke-width:1;"/><text fill="#000000" font-family="sans-serif" font-size="14" lengthAdjust="spacing" textLength="88.751" x="380.11" y="354.6651">id : INT &#171;PK&#187;</text><line style="stroke:#181818;stroke-width:1;" x1="361.11" x2="786.1881" y1="361.9669" y2="361.9669"/><text fill="#000000" font-family="sans-serif" font-size="14" lengthAdjust="spacing" textLength="148.9893" x="366.11" y="378.962">titre : VARCHAR(150)</text><text fill="#000000" font-family="sans-serif" font-size="14" lengthAdjust="spacing" textLength="126.998" x="366.11" y="395.2589">description : TEXT</text><text fill="#000000" font-family="sans-serif" font-size="14" lengthAdjust="spacing" textLength="116.5459" x="366.11" y="411.5557">date : DATETIME</text><line style="stroke:#181818;stroke-width:1;" x1="361.11" x2="786.1881" y1="418.8575" y2="418.8575"/><text fill="#000000" font-family="sans-serif" font-size="14" lengthAdjust="spacing" textLength="415.0781" x="366.11" y="435.8526">equipe_id : INT &#171;FK&#187;  ' optionnel (galerie li&#233;e &#224; une &#233;quipe)</text></g><!--class photos--><g class="entity" data-entity="photos" data-source-line="71" data-uid="ent0008" id="entity_photos"><rect fill="#F1F1F1" height="129.4844" rx="2.5" ry="2.5" style="stroke:#181818;stroke-width:0.5;" width="192.7764" x="477.26" y="581.05"/><ellipse cx="545.5613" cy="597.05" fill="#ADD1B2" rx="11" ry="11" style="stroke:#181818;stroke-width:1;"/><path d="M549.6706,603.05 L541.9519,603.05 L541.9519,590.6594 L549.6706,590.6594 L549.6706,592.8156 L544.405,592.8156 L544.405,595.4875 L549.1706,595.4875 L549.1706,597.6438 L544.405,597.6438 L544.405,600.8938 L549.6706,600.8938 L549.6706,603.05 Z " fill="#000000"/><text fill="#000000" font-family="sans-serif" font-size="14" lengthAdjust="spacing" textLength="47.6738" x="566.0613" y="601.8967">photos</text><line style="stroke:#181818;stroke-width:0.5;" x1="478.26" x2="669.0364" y1="613.05" y2="613.05"/><ellipse cx="488.26" cy="626.6984" fill="none" rx="3" ry="3" style="stroke:#038048;stroke-width:1;"/><text fill="#000000" font-family="sans-serif" font-size="14" lengthAdjust="spacing" textLength="88.751" x="497.26" y="630.0451">id : INT &#171;PK&#187;</text><line style="stroke:#181818;stroke-width:1;" x1="478.26" x2="669.0364" y1="637.3469" y2="637.3469"/><text fill="#000000" font-family="sans-serif" font-size="14" lengthAdjust="spacing" textLength="143.5889" x="483.26" y="654.342">galerie_id : INT &#171;FK&#187;</text><text fill="#000000" font-family="sans-serif" font-size="14" lengthAdjust="spacing" textLength="180.7764" x="483.26" y="670.6389">filename : VARCHAR(255)</text><text fill="#000000" font-family="sans-serif" font-size="14" lengthAdjust="spacing" textLength="126.998" x="483.26" y="686.9357">description : TEXT</text><text fill="#000000" font-family="sans-serif" font-size="14" lengthAdjust="spacing" textLength="171.2266" x="483.26" y="703.2326">uploaded_at : DATETIME</text></g><!--class users--><g class="entity" data-entity="users" data-source-line="80" data-uid="ent0009" id="entity_users"><rect fill="#F1F1F1" height="129.4844" rx="2.5" ry="2.5" style="stroke:#181818;stroke-width:0.5;" width="229.7725" x="991.76" y="15.15"/><ellipse cx="1083.4812" cy="31.15" fill="#ADD1B2" rx="11" ry="11" style="stroke:#181818;stroke-width:1;"/><path d="M1087.5906,37.15 L1079.8718,37.15 L1079.8718,24.7594 L1087.5906,24.7594 L1087.5906,26.9156 L1082.3249,26.9156 L1082.3249,29.5875 L1087.0906,29.5875 L1087.0906,31.7437 L1082.3249,31.7437 L1082.3249,34.9937 L1087.5906,34.9937 L1087.5906,37.15 Z " fill="#000000"/><text fill="#000000" font-family="sans-serif" font-size="14" lengthAdjust="spacing" textLength="37.8301" x="1103.9812" y="35.9967">users</text><line style="stroke:#181818;stroke-width:0.5;" x1="992.76" x2="1220.5325" y1="47.15" y2="47.15"/><ellipse cx="1002.76" cy="60.7984" fill="none" rx="3" ry="3" style="stroke:#038048;stroke-width:1;"/><text fill="#000000" font-family="sans-serif" font-size="14" lengthAdjust="spacing" textLength="88.751" x="1011.76" y="64.1451">id : INT &#171;PK&#187;</text><line style="stroke:#181818;stroke-width:1;" x1="992.76" x2="1220.5325" y1="71.4469" y2="71.4469"/><text fill="#000000" font-family="sans-serif" font-size="14" lengthAdjust="spacing" textLength="159.4551" x="997.76" y="88.442">name : VARCHAR(100)</text><text fill="#000000" font-family="sans-serif" font-size="14" lengthAdjust="spacing" textLength="217.7725" x="997.76" y="104.7389">email : VARCHAR(100) UNIQUE</text><text fill="#000000" font-family="sans-serif" font-size="14" lengthAdjust="spacing" textLength="186.4639" x="997.76" y="121.0357">password : VARCHAR(255)</text><text fill="#000000" font-family="sans-serif" font-size="14" lengthAdjust="spacing" textLength="187.9404" x="997.76" y="137.3326">role : ENUM('admin','staff')</text></g><!--link equipes to joueurs--><g class="link" data-entity-1="equipes" data-entity-2="joueurs" data-source-line="92" data-uid="lnk10" id="link_equipes_joueurs"><path codeLine="92" d="M564.1044,132.9372 C578.0944,141.5872 586.16,145.85 600.65,152.78 C638.69,170.98 651.98,165.98 690.65,182.78 C743.55,205.77 759.75,208.58 804.65,244.78 C817.97,255.52 818.6201,254.8761 830.7301,267.7561" fill="none" id="equipes-joueurs" style="stroke:#181818;stroke-width:1;"/><line style="stroke:#181818;stroke-width:1;" x1="558.5986" x2="562.8058" y1="134.2358" y2="127.4314"/><line style="stroke:#181818;stroke-width:1;" x1="561.1503" x2="565.3574" y1="135.8135" y2="129.0091"/><line style="stroke:#181818;stroke-width:1;" x1="564.1044" x2="557.3" y1="132.9372" y2="128.73"/><line style="stroke:#181818;stroke-width:1;" x1="837.58" x2="847.4313" y1="275.0416" y2="276.76"/><line style="stroke:#181818;stroke-width:1;" x1="837.58" x2="838.6887" y1="275.0416" y2="284.98"/><line style="stroke:#181818;stroke-width:1;" x1="837.58" x2="843.06" y1="275.0416" y2="280.87"/><ellipse cx="833.4701" cy="270.6703" fill="none" rx="4" ry="4" style="stroke:#181818;stroke-width:1;"/><text fill="#000000" font-family="sans-serif" font-size="13" lengthAdjust="spacing" textLength="230.1533" x="760.65" y="195.8469">1 &#233;quipe poss&#232;de plusieurs joueurs</text><text fill="#000000" font-family="sans-serif" font-size="13" lengthAdjust="spacing" textLength="199.2021" x="776.1256" y="210.9797">joueur.equipe_id -&gt; equipes.id</text></g><!--link equipes to matches--><g class="link" data-entity-1="equipes" data-entity-2="matches" data-source-line="95" data-uid="lnk11" id="link_equipes_matches"><path codeLine="95" d="M386.0667,96.4292 C330.8867,109.5392 272.69,133.22 234.65,182.78 C220.95,200.63 216.4062,204.6708 211.9462,226.9308" fill="none" id="equipes-matches" style="stroke:#181818;stroke-width:1;"/><line style="stroke:#181818;stroke-width:1;" x1="389.0337" x2="390.8829" y1="91.6129" y2="99.3963"/><line style="stroke:#181818;stroke-width:1;" x1="386.115" x2="387.9642" y1="92.3064" y2="100.0897"/><line style="stroke:#181818;stroke-width:1;" x1="386.0667" x2="393.85" y1="96.4292" y2="94.58"/><line style="stroke:#181818;stroke-width:1;" x1="209.9816" x2="214.2931" y1="236.7359" y2="245.7587"/><line style="stroke:#181818;stroke-width:1;" x1="209.9816" x2="202.5269" y1="236.7359" y2="243.4013"/><line style="stroke:#181818;stroke-width:1;" x1="209.9816" x2="208.41" y1="236.7359" y2="244.58"/><ellipse cx="211.1604" cy="230.8528" fill="none" rx="4" ry="4" style="stroke:#181818;stroke-width:1;"/><text fill="#000000" font-family="sans-serif" font-size="13" lengthAdjust="spacing" textLength="124.0649" x="235.65" y="203.3469">&#233;quipe_domicile_id</text></g><!--link equipes to matches--><g class="link" data-entity-1="equipes" data-entity-2="matches" data-source-line="98" data-uid="lnk12" id="link_equipes_matches"><path codeLine="98" d="M439.2699,134.7041 C415.6699,160.3241 391.42,186.46 364.65,214.78 C351.9,228.27 350.9549,229.3448 337.5849,243.2948" fill="none" id="equipes-matches-1" style="stroke:#181818;stroke-width:1;"/><line style="stroke:#181818;stroke-width:1;" x1="439.0379" x2="444.922" y1="129.052" y2="134.4721"/><line style="stroke:#181818;stroke-width:1;" x1="437.0054" x2="442.8894" y1="131.2585" y2="136.6786"/><line style="stroke:#181818;stroke-width:1;" x1="439.2699" x2="444.69" y1="134.7041" y2="128.82"/><line style="stroke:#181818;stroke-width:1;" x1="330.6655" x2="329.4617" y1="250.5144" y2="260.4416"/><line style="stroke:#181818;stroke-width:1;" x1="330.6655" x2="320.7983" y1="250.5144" y2="252.1384"/><line style="stroke:#181818;stroke-width:1;" x1="330.6655" x2="325.13" y1="250.5144" y2="256.29"/><ellipse cx="334.8171" cy="246.1826" fill="none" rx="4" ry="4" style="stroke:#181818;stroke-width:1;"/><text fill="#000000" font-family="sans-serif" font-size="13" lengthAdjust="spacing" textLength="128.54" x="393.65" y="203.3469">&#233;quipe_exterieur_id</text></g><!--link tournaments to matches--><g class="link" data-entity-1="tournaments" data-entity-2="matches" data-source-line="101" data-uid="lnk13" id="link_tournaments_matches"><path codeLine="101" d="M90.2667,152.7866 C88.9567,175.3666 90.52,192.65 97.65,214.78 C100.87,224.79 97.0806,218.5308 101.8206,228.2208" fill="none" id="tournaments-matches" style="stroke:#181818;stroke-width:1;"/><line style="stroke:#181818;stroke-width:1;" x1="86.505" x2="94.4916" y1="148.5616" y2="149.025"/><line style="stroke:#181818;stroke-width:1;" x1="86.3313" x2="94.3179" y1="151.5566" y2="152.0199"/><line style="stroke:#181818;stroke-width:1;" x1="90.2667" x2="90.73" y1="152.7866" y2="144.8"/><line style="stroke:#181818;stroke-width:1;" x1="106.2147" x2="115.1197" y1="237.2037" y2="241.7535"/><line style="stroke:#181818;stroke-width:1;" x1="106.2147" x2="104.3403" y1="237.2037" y2="247.0265"/><line style="stroke:#181818;stroke-width:1;" x1="106.2147" x2="109.73" y1="237.2037" y2="244.39"/><ellipse cx="103.5783" cy="231.814" fill="none" rx="4" ry="4" style="stroke:#181818;stroke-width:1;"/><text fill="#000000" font-family="sans-serif" font-size="13" lengthAdjust="spacing" textLength="95.2021" x="98.65" y="203.3469">tournament_id</text></g><!--link galeries to photos--><g class="link" data-entity-1="galeries" data-entity-2="photos" data-source-line="104" data-uid="lnk14" id="link_galeries_photos"><path codeLine="104" d="M573.65,451.39 C573.65,493.63 573.65,521.57 573.65,563" fill="none" id="galeries-photos" style="stroke:#181818;stroke-width:1;"/><line style="stroke:#181818;stroke-width:1;" x1="569.65" x2="577.65" y1="447.39" y2="447.39"/><line style="stroke:#181818;stroke-width:1;" x1="569.65" x2="577.65" y1="450.39" y2="450.39"/><line style="stroke:#181818;stroke-width:1;" x1="573.65" x2="573.65" y1="451.39" y2="443.39"/><line style="stroke:#181818;stroke-width:1;" x1="573.65" x2="579.65" y1="573" y2="581"/><line style="stroke:#181818;stroke-width:1;" x1="573.65" x2="567.65" y1="573" y2="581"/><line style="stroke:#181818;stroke-width:1;" x1="573.65" x2="573.65" y1="573" y2="581"/><ellipse cx="573.65" cy="567" fill="none" rx="4" ry="4" style="stroke:#181818;stroke-width:1;"/><text fill="#000000" font-family="sans-serif" font-size="13" lengthAdjust="spacing" textLength="63.1465" x="574.65" y="547.1169">galerie_id</text></g><!--link equipes to galeries--><g class="link" data-entity-1="equipes" data-entity-2="galeries" data-source-line="107" data-uid="lnk15" id="link_equipes_galeries"><path codeLine="107" d="M516.2667,135.9971 C524.0467,152.7671 528.79,164.68 534.65,182.78 C547.55,222.63 554.0073,250.8777 560.4273,287.6877" fill="none" id="equipes-galeries" style="stroke:#181818;stroke-width:1;"/><line style="stroke:#181818;stroke-width:1;" x1="510.9548" x2="518.2119" y1="134.0519" y2="130.6852"/><line style="stroke:#181818;stroke-width:1;" x1="512.2174" x2="519.4744" y1="136.7733" y2="133.4066"/><line style="stroke:#181818;stroke-width:1;" x1="516.2667" x2="512.9" y1="135.9971" y2="128.74"/><line style="stroke:#181818;stroke-width:1;" x1="562.1455" x2="569.4308" y1="297.539" y2="304.3891"/><line style="stroke:#181818;stroke-width:1;" x1="562.1455" x2="557.6092" y1="297.539" y2="306.4509"/><line style="stroke:#181818;stroke-width:1;" x1="562.1455" x2="563.52" y1="297.539" y2="305.42"/><ellipse cx="561.1146" cy="291.6282" fill="none" rx="4" ry="4" style="stroke:#181818;stroke-width:1;"/><text fill="#000000" font-family="sans-serif" font-size="13" lengthAdjust="spacing" textLength="137.9473" x="544.65" y="203.3469">equipe_id (optionnel)</text></g><!--SRC=[jLRDZjCm4BxtAQnUqWgwsYBrKgqgPI68YcuB9KKSa2ehSRT6YHti15ZjyYuSwNFqnPZOZkCqeOjMOYyxdf_FyysC9_NGoFwXqBzU11ySJQz7M4xpEzGdNmkQ4Tb7M28Ze_iUGiyGZT4KpPSXkhfwztOs0nt48SHu2lgF_lhb6tyz65zU3a4PuPpSSa69Ovg0vMTzqHTUa4BeYupyX8ioGJhrCIImPPXAYLbKPl7A3uFIdylyD2c0Bb8YkBwrTDhpd3jEBoQJOPM5hidMoV5rcQD3BEU5O3Y5eoRdd1yX24vj9Wc7ObBEsXQPOv5lIwOrFyBYXiR9AyLvj3UTDVBvV1oSS7uJdCs5PnbdS5FRubOjvYcDQD8kd_KWFt82OrE83XU592CkQY3RCgssqLQlOgZSxhcgxVLgjGZyfTRLZMbOL4XjEzTgyeqmKdUwFfulB0IBHgVr5CP4He9cfi1Xy2diRW8GR0VdTrdf5omtDmDFjTTxxYaMd88aZeU20J28k83RlSPRlCL9MJVDeZhyJmvddX927anJ2S18WWOc6s1zF11q_8KA1lyEAhJ1GJrQpK2Bv_Ctk1rZjeEvEdcAPW5qaYkoXEEOn5kSknoTp0f9p9vJqbEM04anJKxKQBESlz-efOQb_Cv5tCvOyAIU2Xodj1m0s1kxdHu0p_qgh8E57yvNo-Q7mREVWN6fdw5bjQvxbU7XOJJYztQBJr5_NBMeNBZo-3i68IaaLNRZzvbfuQAU0q0tc1SqxdVUNMskGRK2XgTfL1wGXad2tJkFeC86EHxK2laNN7TRAM1trv-2zrnZ6xEnSHIOVOWMIGzspneCYfdtgNt8V-Lf8mVsYRLuMfzfzMkWR8qJqFy3]--></g></svg>